<?xml version="1.0" encoding="UTF-8"?>
<!-- Generated by Pixelmator Pro 3.7.1 -->
<svg width="20" height="20" viewBox="0 0 20 20" xmlns="http://www.w3.org/2000/svg">
    <path id="Path" fill="#000000" stroke="#000000" stroke-linecap="round" stroke-linejoin="round" d="M 17.1875 10 C 17.187492 10.172585 17.047585 10.312491 16.875 10.3125 L 3.879433 10.3125 L 8.970946 15.404053 C 9.092973 15.526077 9.092973 15.723921 8.970946 15.845947 C 8.848921 15.967972 8.651078 15.967972 8.529052 15.845947 L 2.904052 10.220947 C 2.845434 10.162358 2.8125 10.082878 2.8125 9.999999 C 2.8125 9.917122 2.845434 9.837641 2.904052 9.779052 L 8.529052 4.154053 C 8.651078 4.032026 8.848921 4.032026 8.970946 4.154053 C 9.092973 4.276079 9.092973 4.473921 8.970946 4.595947 L 3.879433 9.6875 L 16.875 9.6875 C 17.047585 9.687509 17.187492 9.827415 17.1875 10 Z"/>
</svg>
