<?xml version="1.0" encoding="UTF-8"?>
<!-- Generated by Pixelmator Pro 3.7.1 -->
<svg width="20" height="20" viewBox="0 0 20 20" xmlns="http://www.w3.org/2000/svg">
    <path id="Circle" fill="#00d300" fill-rule="evenodd" stroke="none" d="M 20 10 C 20 4.477153 15.522847 0 10 0 C 4.477152 0 0 4.477153 0 10 C 0 15.522848 4.477152 20 10 20 C 15.522847 20 20 15.522848 20 10 Z"/>
    <path id="Path" fill="none" stroke="#ffffff" stroke-width="1.5" stroke-linecap="round" stroke-linejoin="round" d="M 5.75 9.75 L 5.75 8.25 C 5.75 7.145431 6.645431 6.25 7.75 6.25 L 13.5 6.25"/>
    <path id="path1" fill="none" stroke="#ffffff" stroke-width="1.5" stroke-linecap="round" stroke-linejoin="round" d="M 12.5 4.25 L 14.5 6.25 L 12.5 8.25"/>
    <path id="path2" fill="none" stroke="#ffffff" stroke-width="1.5" stroke-linecap="round" stroke-linejoin="round" d="M 7.5 11.75 L 5.5 13.75 L 7.5 15.75"/>
    <path id="path3" fill="none" stroke="#ffffff" stroke-width="1.5" stroke-linecap="round" stroke-linejoin="round" d="M 6.5 13.75 L 12.25 13.75 C 13.354569 13.75 14.25 12.854569 14.25 11.75 L 14.25 11"/>
</svg>
