<?xml version="1.0" encoding="UTF-8"?>
<!-- Generated by Pixelmator Pro 3.7.1 -->
<svg width="24" height="22" viewBox="0 0 24 22" xmlns="http://www.w3.org/2000/svg">
    <path id="Path" fill="#ea0038" fill-rule="evenodd" stroke="none" d="M 3.371875 17.794792 C 3.730906 18.153849 4.1625 18.333334 4.666667 18.333334 L 15.666667 18.333334 C 16.170834 18.333334 16.6024 18.153849 16.961458 17.794792 C 17.320517 17.435734 17.5 17.004166 17.5 16.5 L 17.5 12.375 L 20.387499 15.2625 C 20.540308 15.415308 20.708334 15.453442 20.891666 15.377083 C 21.074999 15.300725 21.166666 15.155525 21.166666 14.941666 L 21.166666 7.058332 C 21.166666 6.844447 21.074999 6.699303 20.891666 6.622916 C 20.708334 6.546532 20.540308 6.584721 20.387499 6.7375 L 17.5 9.625 L 17.5 5.5 C 17.5 4.995832 17.320517 4.56424 16.961458 4.205208 C 16.6024 3.846178 16.170834 3.666666 15.666667 3.666666 L 4.666667 3.666666 C 4.1625 3.666666 3.730906 3.846178 3.371875 4.205208 C 3.012844 4.56424 2.833333 4.995832 2.833333 5.5 L 2.833333 16.5 C 2.833333 17.004166 3.012844 17.435734 3.371875 17.794792 Z M 7.645833 14.666666 C 7.013003 14.666666 6.5 14.1537 6.5 13.520833 L 6.5 10.083333 C 6.5 9.577058 6.91041 9.166667 7.416667 9.166667 C 7.922923 9.166667 8.333333 9.577058 8.333333 10.083333 L 8.333333 11.536983 L 12.268492 7.601815 C 12.626451 7.243839 13.206883 7.243839 13.564841 7.601815 C 13.9228 7.959803 13.9228 8.540198 13.564841 8.898185 L 9.629693 12.833333 L 11.083333 12.833333 C 11.589609 12.833333 12 13.243725 12 13.75 C 12 14.256275 11.589609 14.666666 11.083333 14.666666 L 7.645833 14.666666 Z"/>
</svg>
