<?xml version="1.0" encoding="UTF-8"?>
<!-- Generated by Pixelmator Pro 3.7.1 -->
<svg width="24" height="22" viewBox="0 0 24 22" xmlns="http://www.w3.org/2000/svg">
    <path id="Path" fill="#000000" fill-rule="evenodd" stroke="none" d="M 3.371875 17.794792 C 3.730906 18.153849 4.1625 18.333334 4.666667 18.333334 L 15.666667 18.333334 C 16.170834 18.333334 16.6024 18.153849 16.961458 17.794792 C 17.320517 17.435734 17.5 17.004166 17.5 16.5 L 17.5 12.375 L 20.387499 15.2625 C 20.540308 15.415308 20.708334 15.453442 20.891666 15.377083 C 21.074999 15.300725 21.166666 15.155525 21.166666 14.941666 L 21.166666 7.058333 C 21.166666 6.844447 21.074999 6.699303 20.891666 6.622916 C 20.708334 6.546531 20.540308 6.58472 20.387499 6.7375 L 17.5 9.625 L 17.5 5.5 C 17.5 4.995832 17.320517 4.56424 16.961458 4.205208 C 16.6024 3.846178 16.170834 3.666666 15.666667 3.666666 L 4.666667 3.666666 C 4.1625 3.666666 3.730906 3.846178 3.371875 4.205208 C 3.012844 4.56424 2.833333 4.995832 2.833333 5.5 L 2.833333 16.5 C 2.833333 17.004166 3.012844 17.435734 3.371875 17.794792 Z M 9.25 7.333333 C 8.743743 7.333333 8.333333 7.743743 8.333333 8.25 C 8.333333 8.756257 8.743743 9.166667 9.25 9.166667 L 10.70365 9.166667 L 6.768483 13.101825 C 6.410506 13.459784 6.410506 14.040216 6.768483 14.398174 C 7.126469 14.756134 7.706865 14.756134 8.064851 14.398174 L 12 10.463017 L 12 11.916667 C 12 12.422942 12.410391 12.833333 12.916667 12.833333 C 13.422942 12.833333 13.833333 12.422942 13.833333 11.916667 L 13.833333 8.479167 C 13.833333 7.846336 13.320367 7.333333 12.6875 7.333333 L 9.25 7.333333 Z"/>
</svg>
